<?xml version="1.0" encoding="utf-8"?>
<!-- Generator: Adobe Illustrator 25.2.1, SVG Export Plug-In . SVG Version: 6.00 Build 0)  -->
<svg version="1.1" xmlns="http://www.w3.org/2000/svg" xmlns:xlink="http://www.w3.org/1999/xlink" x="0px" y="0px"
	 viewBox="0 0 128 234" style="enable-background:new 0 0 128 234;" xml:space="preserve">
<style type="text/css">
	.st0{fill:#E78B00;}
	.st1{fill:#FFFFFF;}
</style>
<g id="background">
</g>
<g id="icon_x5F_area">
	<g>
		<rect x="0.3" class="st0" width="127.7" height="127.7"/>
	</g>
	<g>
		<polygon points="13.4,115.2 19.6,115.2 19.6,23.7 65.4,115.2 114.9,115.2 114.9,12.5 108.7,12.5 108.7,104 62.9,12.5 13.4,12.5 		
			"/>
	</g>
	<path class="st1" d="M51.1,50.8c-1.5-3-0.4-6.6,2.7-8.2c3-1.5,6.6-0.3,8.1,2.7c1.5,3,0.4,6.6-2.6,8.1C56.3,55,52.6,53.7,51.1,50.8z
		"/>
	<path class="st1" d="M67.4,82.6c-1.5-3-0.4-6.6,2.7-8.2c3-1.5,6.6-0.3,8.1,2.7c1.5,3,0.4,6.6-2.6,8.1
		C72.5,86.7,68.9,85.6,67.4,82.6z"/>
	<g>
		<path d="M0.4,139.8h5.5L16,154.4h0.1v-14.6h6.4v25.3h-5.4L7,150.3H6.9v14.8H0.4V139.8z"/>
		<path d="M25.4,155.5L25.4,155.5c0-6.2,3.8-10,9.8-10c5.9,0,9.8,3.7,9.8,9.9v0c0,6.3-3.8,9.9-9.8,9.9
			C29.1,165.5,25.4,161.8,25.4,155.5z M38.6,155.5L38.6,155.5c0-3.3-1.4-5.2-3.5-5.2s-3.5,1.9-3.5,5.2v0c0,3.4,1.3,5.2,3.5,5.2
			C37.3,160.8,38.6,158.9,38.6,155.5z"/>
		<path d="M45.8,146h6.3l2.4,13.5h0.1l2.9-13.5h5.9l2.9,13.5h0.1L69,146h6.1l-4.9,19.1h-6.7l-3-12.9h-0.1l-3,12.9h-6.6L45.8,146z"/>
		<path d="M1,173.7h8.5c7.5,0,11.9,4.7,11.9,12.6v0c0,8-4.4,12.7-11.9,12.7H1V173.7z M9.3,196.2c5.7,0,8.9-3.5,8.9-9.8v0
			c0-6.3-3.2-9.8-8.9-9.8H4.1v19.6H9.3z"/>
		<path d="M24,190L24,190c0-5.7,3.2-9.5,8.2-9.5s8,3.7,8,9.2v1.1H27.1c0.1,3.8,2.1,5.9,5.4,5.9c2.3,0,3.9-1.2,4.5-2.7l0.1-0.2h3
			l0,0.2c-0.6,3-3.6,5.4-7.6,5.4C27.1,199.4,24,195.7,24,190z M27.1,188.3h10c-0.3-3.5-2.3-5.2-4.9-5.2
			C29.5,183.1,27.5,184.9,27.1,188.3z"/>
		<path d="M42.5,193.9l0-0.2h3.1l0,0.2c0.4,1.8,1.7,2.9,4.2,2.9c2.5,0,3.9-1,3.9-2.7v0c0-1.3-0.7-2.1-2.8-2.6l-2.9-0.7
			c-3.4-0.8-5.1-2.4-5.1-5.1v0c0-3.1,2.8-5.4,6.7-5.4c4,0,6.5,2.3,6.8,5.4l0,0.2h-2.9l0-0.1c-0.2-1.8-1.6-2.9-3.9-2.9
			c-2.2,0-3.6,1.1-3.6,2.7v0c0,1.2,0.8,2.1,2.8,2.6l2.9,0.7c3.7,0.9,5,2.3,5,4.9v0c0,3.2-3,5.4-7.1,5.4
			C45.5,199.4,42.9,197.2,42.5,193.9z"/>
		<path d="M60.2,173.7h3.1v15.1h0.1l8-8h3.7l-7.9,7.9l8.2,10.4h-3.5l-6.8-8.5l-1.7,1.6v6.9h-3.1V173.7z"/>
		<path d="M78.3,194.4v-11.1h-2.7v-2.5h2.7v-4.9h3.2v4.9H85v2.5h-3.5v11c0,1.9,0.9,2.5,2.5,2.5c0.4,0,0.7-0.1,1-0.1v2.5
			c-0.4,0.1-1,0.1-1.6,0.1C80,199.4,78.3,197.8,78.3,194.4z"/>
		<path d="M86.8,189.9L86.8,189.9c0-5.8,3.4-9.5,8.4-9.5c5,0,8.5,3.6,8.5,9.4v0c0,5.8-3.4,9.5-8.4,9.5
			C90.2,199.4,86.8,195.7,86.8,189.9z M100.6,189.9L100.6,189.9c0-4.3-2.1-6.8-5.3-6.8c-3.2,0-5.3,2.5-5.3,6.7v0
			c0,4.3,2.1,6.8,5.3,6.8C98.5,196.7,100.6,194.2,100.6,189.9z"/>
		<path d="M106.8,180.8h3.1v3.1h0.1c1.1-2.1,3.2-3.4,5.8-3.4c4.7,0,7.8,3.7,7.8,9.5v0c0,5.8-3.1,9.5-7.7,9.5c-2.6,0-4.7-1.3-5.8-3.4
			h-0.1v9.2h-3.1V180.8z M120.3,189.9L120.3,189.9c0-4.2-2-6.8-5.2-6.8c-3.1,0-5.3,2.7-5.3,6.8v0c0,4.1,2.2,6.8,5.3,6.8
			C118.3,196.7,120.3,194.1,120.3,189.9z"/>
		<path d="M0,220.3L0,220.3c0-8,4.5-13.1,11.6-13.1c5.3,0,9.3,3.2,10.3,8l0,0.2h-3.2l-0.1-0.4c-1-3.1-3.5-4.9-7-4.9
			c-5.1,0-8.3,4-8.3,10.1v0c0,6.2,3.3,10.2,8.3,10.2c3.5,0,6-1.8,7.1-5.1l0.1-0.2h3.2l0,0.2c-1,4.8-5,8-10.3,8
			C4.5,233.3,0,228.2,0,220.3z"/>
		<path d="M25.3,207.6h3.1v25.3h-3.1V207.6z"/>
		<path d="M31.6,223.8L31.6,223.8c0-5.8,3.4-9.5,8.4-9.5s8.5,3.6,8.5,9.4v0c0,5.8-3.4,9.5-8.4,9.5C35,233.3,31.6,229.6,31.6,223.8z
			 M45.3,223.8L45.3,223.8c0-4.3-2.1-6.8-5.3-6.8c-3.2,0-5.3,2.5-5.3,6.7v0c0,4.3,2.1,6.8,5.3,6.8C43.3,230.6,45.3,228.1,45.3,223.8
			z"/>
		<path d="M50.6,223.8L50.6,223.8c0-5.8,3.3-9.5,8.4-9.5c4.5,0,7.2,3,7.6,6.1l0,0.1h-3l0-0.1c-0.5-1.8-1.9-3.4-4.6-3.4
			c-3.2,0-5.3,2.6-5.3,6.8v0c0,4.2,2.2,6.8,5.3,6.8c2.5,0,4.1-1.4,4.6-3.4l0-0.1h3l0,0.1c-0.5,3.5-3.5,6.2-7.6,6.2
			C53.9,233.3,50.6,229.6,50.6,223.8z"/>
		<path d="M69.8,207.6h3.1v15.1h0.1l8-8h3.7l-7.9,7.9l8.2,10.4h-3.5l-6.8-8.5l-1.7,1.6v6.9h-3.1V207.6z"/>
	</g>
</g>
<g id="masking">
</g>
<g id="labels">
</g>
</svg>
